<svg width="1701" height="82" viewBox="0 0 1701 82" fill="none" xmlns="http://www.w3.org/2000/svg">
<path d="M1701 0H0V82H1701V0Z" fill="#DCCA00"/>
<path d="M1644.16 49.7132C1644.16 46.9593 1644.53 44.6771 1645.27 42.8667C1646.03 41.0308 1646.94 39.5901 1647.98 38.5446C1649.03 37.4991 1650.38 36.3772 1652.04 35.1787C1653.21 34.3117 1654.1 33.6105 1654.72 33.075C1655.35 32.5141 1655.88 31.8383 1656.28 31.0479C1656.72 30.2319 1656.93 29.2884 1656.93 28.2174C1656.91 26.254 1656.22 24.6986 1654.87 23.5511C1653.54 22.3781 1651.81 21.7917 1649.67 21.7917C1647.27 21.7917 1645.37 22.5184 1643.97 23.9718C1642.59 25.4253 1641.92 27.4015 1641.94 29.9004H1630.85C1630.85 26.3305 1631.68 23.1941 1633.34 20.4912C1635.02 17.7883 1637.33 15.6974 1640.26 14.2184C1643.22 12.7395 1646.56 12 1650.28 12C1653.67 12 1656.76 12.6247 1659.54 13.8742C1662.34 15.1236 1664.56 16.9341 1666.19 19.3055C1667.82 21.6769 1668.64 24.4436 1668.64 27.6055C1668.64 29.6199 1668.31 31.3538 1667.64 32.8073C1667.01 34.2352 1666.22 35.421 1665.27 36.3644C1664.33 37.2824 1663.08 38.3406 1661.52 39.5391C1660.12 40.61 1659 41.5535 1658.16 42.3695C1657.34 43.1599 1656.65 44.1544 1656.09 45.3529C1655.53 46.5258 1655.25 47.9283 1655.25 49.5602V50.7842H1644.16V49.7132ZM1649.74 69.2965C1648.42 69.2965 1647.22 69.0161 1646.15 68.4551C1645.1 67.8686 1644.27 67.0781 1643.66 66.0837C1643.08 65.0892 1642.78 63.9672 1642.78 62.7178C1642.78 61.4683 1643.08 60.3464 1643.66 59.3519C1644.27 58.3574 1645.1 57.5797 1646.15 57.0187C1647.22 56.4322 1648.42 56.139 1649.74 56.139C1651.04 56.139 1652.22 56.4322 1653.26 57.0187C1654.31 57.5797 1655.12 58.3574 1655.71 59.3519C1656.32 60.3464 1656.63 61.4683 1656.63 62.7178C1656.63 63.9672 1656.32 65.0892 1655.71 66.0837C1655.12 67.0781 1654.31 67.8686 1653.26 68.4551C1652.22 69.0161 1651.04 69.2965 1649.74 69.2965Z" fill="black"/>
<path d="M1587.86 13.071H1623.58V23.7042H1599.18V35.1788H1621.44V44.894H1599.18V57.822H1624.19V68.4552H1587.86V13.071Z" fill="black"/>
<path d="M1518.63 13.071H1532.86L1548.16 50.9373H1548.46L1563.76 13.071H1577.99V68.4552H1566.9V34.1843H1566.63L1552.97 68.4552H1543.64L1529.99 34.1843H1529.72V68.4552H1518.63V13.071Z" fill="black"/>
<path d="M1454.68 13.071H1490.4V23.7042H1466V35.1788H1488.26V44.894H1466V57.822H1491.01V68.4552H1454.68V13.071Z" fill="black"/>
<path d="M1402.96 13.071H1414.28V36.6322H1414.67L1433.64 13.071H1447.71L1425.99 39.3862L1448.33 68.4552H1434.1L1414.67 42.752H1414.28V68.4552H1402.96V13.071Z" fill="black"/>
<path d="M1381.77 13.071H1393.1V68.4552H1381.77V13.071Z" fill="black"/>
<path d="M1338.55 13.071H1349.87V57.822H1373.36V68.4552H1338.55V13.071Z" fill="black"/>
<path d="M1271.16 13.071H1290.13C1294.29 13.071 1297.97 13.7978 1301.18 15.2512C1304.4 16.7047 1306.9 18.7446 1308.68 21.371C1310.49 23.9974 1311.4 26.9936 1311.4 30.3595C1311.37 34.2098 1310.22 37.563 1307.95 40.4189C1305.68 43.2493 1302.59 45.2764 1298.66 46.5004L1313.08 68.4552H1300.23L1286.88 47.7244H1282.48V68.4552H1271.16V13.071ZM1290.74 38.2387C1293.62 38.2642 1295.88 37.614 1297.51 36.288C1299.14 34.9621 1299.97 33.1389 1300 30.8184C1299.97 28.498 1299.14 26.6876 1297.51 25.3871C1295.88 24.0612 1293.62 23.3982 1290.74 23.3982H1282.48V38.2387H1290.74Z" fill="black"/>
<path d="M1226.18 13.071H1261.9V23.7042H1237.5V35.1788H1259.76V44.894H1237.5V57.822H1262.51V68.4552H1226.18V13.071Z" fill="black"/>
<path d="M1167.66 13.071H1180.51L1204.64 50.4783H1204.99V13.071H1216.31V68.4552H1203.61L1179.44 30.8184H1178.98V68.4552H1167.66V13.071Z" fill="black"/>
<path d="M1133.23 69.526C1127.78 69.526 1122.83 68.2766 1118.39 65.7777C1113.96 63.2533 1110.48 59.7981 1107.95 55.4123C1105.43 51.0264 1104.16 46.1433 1104.16 40.763C1104.16 35.3827 1105.43 30.4996 1107.95 26.1138C1110.48 21.7279 1113.94 18.2855 1118.35 15.7866C1122.79 13.2622 1127.73 12 1133.16 12C1137.8 12 1142.03 12.9307 1145.86 14.7922C1149.71 16.6536 1152.89 19.2163 1155.42 22.4801L1146.54 29.1354C1144.84 26.917 1142.87 25.2978 1140.65 24.2778C1138.46 23.2324 1135.96 22.7096 1133.16 22.7096C1129.74 22.7096 1126.69 23.4746 1124.02 25.0046C1121.34 26.5345 1119.26 28.6764 1117.78 31.4303C1116.3 34.1587 1115.56 37.2696 1115.56 40.763C1115.56 44.2564 1116.3 47.3801 1117.78 50.134C1119.29 52.8624 1121.38 54.9915 1124.05 56.5215C1126.76 58.0514 1129.82 58.8164 1133.23 58.8164C1135.83 58.8164 1138.17 58.3702 1140.23 57.4777C1142.32 56.5597 1144.05 55.2593 1145.4 53.5763C1146.75 51.8934 1147.67 49.9172 1148.15 47.6478H1134.3V38.2386H1159.17C1159.52 40.1765 1159.7 42.038 1159.7 43.8229C1159.7 48.8207 1158.57 53.2703 1156.3 57.1717C1154.03 61.0731 1150.88 64.1075 1146.85 66.2749C1142.82 68.4423 1138.28 69.526 1133.23 69.526Z" fill="black"/>
<path d="M1084.96 13.071H1096.29V68.4552H1084.96V13.071Z" fill="black"/>
<path d="M1056.51 69.526C1052.55 69.526 1048.81 68.7866 1045.26 67.3076C1041.74 65.8032 1038.61 63.6102 1035.85 60.7288L1043.12 52.7731C1045.11 54.8385 1047.2 56.3685 1049.39 57.363C1051.59 58.3319 1053.96 58.8164 1056.51 58.8164C1059.29 58.8164 1061.48 58.2299 1063.09 57.057C1064.69 55.884 1065.51 54.2776 1065.53 52.2376C1065.51 51.1157 1065.21 50.1722 1064.65 49.4072C1064.09 48.6168 1063.16 47.9028 1061.86 47.2653C1060.59 46.6278 1058.8 45.9903 1056.51 45.3529L1053.91 44.6644C1048.55 43.2874 1044.52 41.273 1041.82 38.6211C1039.14 35.9437 1037.82 32.6543 1037.84 28.7529C1037.84 25.591 1038.68 22.7351 1040.37 20.1852C1042.07 17.6353 1044.43 15.6336 1047.44 14.1802C1050.45 12.7267 1053.83 12 1057.58 12C1061.12 12 1064.54 12.714 1067.83 14.1419C1071.12 15.5699 1074.05 17.5843 1076.63 20.1852L1069.43 28.2174C1065.81 24.5456 1061.86 22.7096 1057.58 22.7096C1055.97 22.7096 1054.53 22.9646 1053.26 23.4746C1052.01 23.9591 1051.02 24.6603 1050.31 25.5783C1049.6 26.4708 1049.24 27.478 1049.24 28.5999C1049.24 29.5689 1049.47 30.3849 1049.93 31.0479C1050.41 31.7108 1051.19 32.3101 1052.26 32.8455C1053.36 33.3555 1054.85 33.8528 1056.74 34.3372L1059.34 35.0257C1065.38 36.6577 1069.82 38.8378 1072.65 41.5662C1075.48 44.2947 1076.91 47.7753 1076.93 52.0081C1076.93 55.3995 1076.06 58.4339 1074.33 61.1113C1072.6 63.7632 1070.17 65.8287 1067.06 67.3076C1063.98 68.7866 1060.46 69.526 1056.51 69.526Z" fill="black"/>
<path d="M994.085 13.071H1029.81V23.7042H1005.41V35.1788H1027.67V44.894H1005.41V57.822H1030.42V68.4552H994.085V13.071Z" fill="black"/>
<path d="M938.854 13.071H955.759C961.803 13.071 967.119 14.2185 971.709 16.5134C976.299 18.8083 979.856 22.0467 982.38 26.2286C984.905 30.4105 986.18 35.2553 986.205 40.7631C986.18 46.2709 984.905 51.1158 982.38 55.2976C979.856 59.4795 976.299 62.7179 971.709 65.0128C967.119 67.3077 961.803 68.4552 955.759 68.4552H938.854V13.071ZM955.759 57.822C959.712 57.822 963.103 57.1463 965.934 55.7948C968.789 54.4434 970.97 52.4927 972.474 49.9428C974.004 47.3929 974.782 44.333 974.807 40.7631C974.782 37.1932 974.004 34.1333 972.474 31.5834C970.97 29.0335 968.789 27.0828 965.934 25.7314C963.103 24.3799 959.712 23.7042 955.759 23.7042H950.175V57.822H955.759Z" fill="black"/>
<path d="M896.665 56.2921H875.322L871.153 68.4552H858.684L880.027 13.071H891.961L913.303 68.4552H900.834L896.665 56.2921ZM893.07 45.7354L886.147 25.6166H885.841L878.918 45.7354H893.07Z" fill="black"/>
<path d="M784.635 13.071H797.486L821.621 50.4783H821.965V13.071H833.287V68.4552H820.589L796.415 30.8184H795.956V68.4552H784.635V13.071Z" fill="black"/>
<path d="M739.654 13.071H775.379V23.7042H750.976V35.1788H773.237V44.894H750.976V57.822H775.991V68.4552H739.654V13.071Z" fill="black"/>
<path d="M694.674 13.071H730.398V23.7042H705.995V35.1788H728.256V44.894H705.995V57.822H731.01V68.4552H694.674V13.071Z" fill="black"/>
<path d="M666.217 69.526C662.264 69.526 658.516 68.7866 654.972 67.3076C651.453 65.8032 648.316 63.6102 645.562 60.7288L652.83 52.7731C654.819 54.8385 656.91 56.3685 659.103 57.363C661.295 58.3319 663.667 58.8164 666.217 58.8164C668.996 58.8164 671.189 58.2299 672.796 57.057C674.402 55.884 675.218 54.2776 675.243 52.2376C675.218 51.1157 674.925 50.1722 674.364 49.4072C673.803 48.6168 672.872 47.9028 671.572 47.2653C670.297 46.6278 668.512 45.9903 666.217 45.3529L663.616 44.6644C658.261 43.2874 654.232 41.273 651.529 38.6211C648.852 35.9437 647.526 32.6543 647.551 28.7529C647.551 25.591 648.393 22.7351 650.076 20.1852C651.784 17.6353 654.143 15.6336 657.152 14.1802C660.161 12.7267 663.539 12 667.288 12C670.832 12 674.249 12.714 677.538 14.1419C680.828 15.5699 683.76 17.5843 686.336 20.1852L679.145 28.2174C675.524 24.5456 671.572 22.7096 667.288 22.7096C665.681 22.7096 664.241 22.9646 662.966 23.4746C661.716 23.9591 660.734 24.6603 660.021 25.5783C659.307 26.4708 658.95 27.478 658.95 28.5999C658.95 29.5689 659.179 30.3849 659.638 31.0479C660.122 31.7108 660.9 32.3101 661.971 32.8455C663.068 33.3555 664.559 33.8528 666.446 34.3372L669.047 35.0257C675.09 36.6577 679.527 38.8378 682.358 41.5662C685.188 44.2947 686.616 47.7753 686.642 52.0081C686.642 55.3995 685.775 58.4339 684.041 61.1113C682.307 63.7632 679.884 65.8287 676.773 67.3076C673.688 68.7866 670.169 69.526 666.217 69.526Z" fill="black"/>
<path d="M580.157 13.071H599.129C603.285 13.071 606.97 13.7978 610.182 15.2512C613.395 16.7047 615.894 18.7446 617.679 21.371C619.49 23.9974 620.395 26.9936 620.395 30.3595C620.369 34.2098 619.222 37.563 616.952 40.4189C614.683 43.2493 611.585 45.2764 607.658 46.5004L622.078 68.4552H609.226L595.877 47.7244H591.479V68.4552H580.157V13.071ZM599.741 38.2387C602.622 38.2642 604.879 37.614 606.511 36.288C608.143 34.9621 608.971 33.1389 608.997 30.8184C608.971 28.498 608.143 26.6876 606.511 25.3871C604.879 24.0612 602.622 23.3982 599.741 23.3982H591.479V38.2387H599.741Z" fill="black"/>
<path d="M535.177 13.071H570.901V23.7042H546.498V35.1788H568.759V44.894H546.498V57.822H571.513V68.4552H535.177V13.071Z" fill="black"/>
<path d="M474.208 13.071H486.83L501.212 53.4617H501.824L516.205 13.071H528.827L507.485 68.4552H495.551L474.208 13.071Z" fill="black"/>
<path d="M432.747 13.071H468.471V23.7042H444.068V35.1788H466.329V44.894H444.068V57.822H469.083V68.4552H432.747V13.071Z" fill="black"/>
<path d="M381.111 69.5261C376.547 69.5261 372.531 68.4807 369.063 66.3897C365.595 64.2988 362.905 61.3664 360.992 57.5925C359.105 53.7932 358.162 49.4073 358.162 44.435V13.071H369.483V44.435C369.483 47.4184 369.942 49.9938 370.86 52.1612C371.778 54.3031 373.117 55.9478 374.876 57.0953C376.636 58.2428 378.714 58.8165 381.111 58.8165C383.508 58.8165 385.586 58.2428 387.346 57.0953C389.105 55.9478 390.456 54.3031 391.4 52.1612C392.343 49.9938 392.815 47.4184 392.815 44.435V13.071H404.137V44.435C404.137 49.4073 403.168 53.7932 401.23 57.5925C399.317 61.3919 396.627 64.337 393.159 66.428C389.691 68.4934 385.675 69.5261 381.111 69.5261Z" fill="black"/>
<path d="M321.52 69.526C316.088 69.526 311.154 68.2766 306.717 65.7777C302.306 63.2533 298.838 59.7981 296.314 55.4123C293.789 51.0264 292.527 46.1433 292.527 40.763C292.527 35.3827 293.789 30.4996 296.314 26.1138C298.838 21.7279 302.306 18.2855 306.717 15.7866C311.154 13.2622 316.088 12 321.52 12C326.951 12 331.872 13.2622 336.284 15.7866C340.695 18.2855 344.163 21.7279 346.687 26.1138C349.237 30.4996 350.512 35.3827 350.512 40.763C350.512 46.1433 349.237 51.0264 346.687 55.4123C344.163 59.7981 340.695 63.2533 336.284 65.7777C331.872 68.2766 326.951 69.526 321.52 69.526ZM321.52 58.8164C324.885 58.8164 327.907 58.0514 330.585 56.5215C333.262 54.966 335.353 52.8241 336.857 50.0957C338.362 47.3418 339.114 44.2309 339.114 40.763C339.114 37.2951 338.362 34.197 336.857 31.4686C335.353 28.7147 333.262 26.5728 330.585 25.0428C327.907 23.4874 324.885 22.7096 321.52 22.7096C318.128 22.7096 315.094 23.4874 312.416 25.0428C309.739 26.5728 307.648 28.7147 306.144 31.4686C304.665 34.197 303.925 37.2951 303.925 40.763C303.925 44.2309 304.665 47.3418 306.144 50.0957C307.648 52.8241 309.739 54.966 312.416 56.5215C315.094 58.0514 318.128 58.8164 321.52 58.8164Z" fill="black"/>
<path d="M259.863 46.3474L238.673 13.071H252.06L265.332 35.1023H265.715L278.987 13.071H292.451L271.184 46.3474V68.4552H259.863V46.3474Z" fill="black"/>
<path d="M178.24 13.071H213.964V23.7042H189.562V35.1788H211.822V44.894H189.562V57.822H214.576V68.4552H178.24V13.071Z" fill="black"/>
<path d="M117.271 13.071H129.894L144.275 53.4617H144.887L159.269 13.071H171.891L150.548 68.4552H138.614L117.271 13.071Z" fill="black"/>
<path d="M105.682 56.2921H84.3394L80.1702 68.4552H67.7012L89.0439 13.071H100.978L122.32 68.4552H109.851L105.682 56.2921ZM102.087 45.7354L95.1637 25.6166H94.8577L87.9347 45.7354H102.087Z" fill="black"/>
<path d="M14 13.071H25.3216V34.0313H49.9538V13.071H61.2754V68.4552H49.9538V44.6645H25.3216V68.4552H14V13.071Z" fill="black"/>
</svg>
